G04 #@! TF.GenerationSoftware,KiCad,Pcbnew,(5.0.0)*
G04 #@! TF.CreationDate,2018-10-24T10:21:27-03:00*
G04 #@! TF.ProjectId,Kurupira 2,4B7572757069726120322E6B69636164,REV B*
G04 #@! TF.SameCoordinates,Original*
G04 #@! TF.FileFunction,Copper,L1,Top,Signal*
G04 #@! TF.FilePolarity,Positive*
%FSLAX46Y46*%
G04 Gerber Fmt 4.6, Leading zero omitted, Abs format (unit mm)*
G04 Created by KiCad (PCBNEW (5.0.0)) date 10/24/18 10:21:27*
%MOMM*%
%LPD*%
G01*
G04 APERTURE LIST*
G04 #@! TA.AperFunction,ComponentPad*
%ADD10R,1.350000X1.350000*%
G04 #@! TD*
G04 #@! TA.AperFunction,ComponentPad*
%ADD11O,1.350000X1.350000*%
G04 #@! TD*
G04 #@! TA.AperFunction,SMDPad,CuDef*
%ADD12R,0.800000X0.900000*%
G04 #@! TD*
G04 #@! TA.AperFunction,SMDPad,CuDef*
%ADD13R,2.000000X2.500000*%
G04 #@! TD*
G04 #@! TA.AperFunction,Conductor*
%ADD14C,1.000000*%
G04 #@! TD*
G04 #@! TA.AperFunction,Conductor*
%ADD15C,0.254000*%
G04 #@! TD*
G04 APERTURE END LIST*
D10*
G04 #@! TO.P,J1,1*
G04 #@! TO.N,PIR*
X187960000Y-101600000D03*
G04 #@! TD*
D11*
G04 #@! TO.P,J2,20*
G04 #@! TO.N,Net-(J2-Pad20)*
X195040000Y-106900000D03*
G04 #@! TO.P,J2,19*
G04 #@! TO.N,Net-(J2-Pad19)*
X193040000Y-106900000D03*
G04 #@! TO.P,J2,18*
G04 #@! TO.N,Net-(J2-Pad18)*
X195040000Y-104900000D03*
G04 #@! TO.P,J2,17*
G04 #@! TO.N,Net-(J2-Pad17)*
X193040000Y-104900000D03*
G04 #@! TO.P,J2,16*
G04 #@! TO.N,Net-(J2-Pad16)*
X195040000Y-102900000D03*
G04 #@! TO.P,J2,15*
G04 #@! TO.N,Net-(J2-Pad15)*
X193040000Y-102900000D03*
G04 #@! TO.P,J2,14*
G04 #@! TO.N,Net-(J2-Pad14)*
X195040000Y-100900000D03*
G04 #@! TO.P,J2,13*
G04 #@! TO.N,Net-(J2-Pad13)*
X193040000Y-100900000D03*
G04 #@! TO.P,J2,12*
G04 #@! TO.N,Net-(J2-Pad12)*
X195040000Y-98900000D03*
G04 #@! TO.P,J2,11*
G04 #@! TO.N,PIR*
X193040000Y-98900000D03*
G04 #@! TO.P,J2,10*
G04 #@! TO.N,Net-(J2-Pad10)*
X195040000Y-96900000D03*
G04 #@! TO.P,J2,9*
G04 #@! TO.N,GND*
X193040000Y-96900000D03*
G04 #@! TO.P,J2,8*
G04 #@! TO.N,Net-(J2-Pad8)*
X195040000Y-94900000D03*
G04 #@! TO.P,J2,7*
G04 #@! TO.N,Net-(J2-Pad7)*
X193040000Y-94900000D03*
G04 #@! TO.P,J2,6*
G04 #@! TO.N,Net-(J2-Pad6)*
X195040000Y-92900000D03*
G04 #@! TO.P,J2,5*
G04 #@! TO.N,V_out*
X193040000Y-92900000D03*
G04 #@! TO.P,J2,4*
G04 #@! TO.N,Net-(J2-Pad4)*
X195040000Y-90900000D03*
G04 #@! TO.P,J2,3*
G04 #@! TO.N,Net-(J2-Pad3)*
X193040000Y-90900000D03*
G04 #@! TO.P,J2,2*
G04 #@! TO.N,+5V*
X195040000Y-88900000D03*
D10*
G04 #@! TO.P,J2,1*
G04 #@! TO.N,Net-(J2-Pad1)*
X193040000Y-88900000D03*
G04 #@! TD*
G04 #@! TO.P,J3,1*
G04 #@! TO.N,+5V*
X187960000Y-88900000D03*
G04 #@! TD*
G04 #@! TO.P,J4,1*
G04 #@! TO.N,GND*
X187960000Y-97028000D03*
G04 #@! TD*
D12*
G04 #@! TO.P,Q1,3*
G04 #@! TO.N,V_out*
X180848000Y-92980000D03*
G04 #@! TO.P,Q1,2*
G04 #@! TO.N,GND*
X181798000Y-94980000D03*
G04 #@! TO.P,Q1,1*
G04 #@! TO.N,Net-(Q1-Pad1)*
X179898000Y-94980000D03*
G04 #@! TD*
D13*
G04 #@! TO.P,R1,2*
G04 #@! TO.N,PIR*
X183864000Y-101600000D03*
G04 #@! TO.P,R1,1*
G04 #@! TO.N,Net-(Q1-Pad1)*
X179864000Y-101600000D03*
G04 #@! TD*
G04 #@! TO.P,R2,1*
G04 #@! TO.N,V_out*
X180880000Y-88900000D03*
G04 #@! TO.P,R2,2*
G04 #@! TO.N,+5V*
X184880000Y-88900000D03*
G04 #@! TD*
D14*
G04 #@! TO.N,PIR*
X183864000Y-101600000D02*
X187960000Y-101600000D01*
X187960000Y-101600000D02*
X190340000Y-101600000D01*
X190340000Y-101600000D02*
X193040000Y-98900000D01*
G04 #@! TO.N,V_out*
X193040000Y-92900000D02*
X180928000Y-92900000D01*
X180928000Y-92900000D02*
X180848000Y-92980000D01*
X180880000Y-88900000D02*
X180880000Y-92948000D01*
X180880000Y-92948000D02*
X180848000Y-92980000D01*
G04 #@! TO.N,+5V*
X184880000Y-88900000D02*
X187960000Y-88900000D01*
X195040000Y-88900000D02*
X195040000Y-87090000D01*
X190500000Y-86360000D02*
X187960000Y-88900000D01*
X194310000Y-86360000D02*
X190500000Y-86360000D01*
X195040000Y-87090000D02*
X194310000Y-86360000D01*
G04 #@! TO.N,Net-(Q1-Pad1)*
X179864000Y-101600000D02*
X179864000Y-94964000D01*
X179864000Y-94964000D02*
X179880000Y-94980000D01*
X179880000Y-94980000D02*
X179898000Y-94980000D01*
G04 #@! TD*
D15*
G04 #@! TO.N,GND*
G36*
X187677309Y-87577560D02*
X187285000Y-87577560D01*
X187037235Y-87626843D01*
X186830470Y-87765000D01*
X186527440Y-87765000D01*
X186527440Y-87650000D01*
X186478157Y-87402235D01*
X186337809Y-87192191D01*
X186127765Y-87051843D01*
X185880000Y-87002560D01*
X183880000Y-87002560D01*
X183632235Y-87051843D01*
X183422191Y-87192191D01*
X183281843Y-87402235D01*
X183232560Y-87650000D01*
X183232560Y-90150000D01*
X183281843Y-90397765D01*
X183422191Y-90607809D01*
X183632235Y-90748157D01*
X183880000Y-90797440D01*
X185880000Y-90797440D01*
X186127765Y-90748157D01*
X186337809Y-90607809D01*
X186478157Y-90397765D01*
X186527440Y-90150000D01*
X186527440Y-90035000D01*
X186830470Y-90035000D01*
X187037235Y-90173157D01*
X187285000Y-90222440D01*
X188635000Y-90222440D01*
X188882765Y-90173157D01*
X189092809Y-90032809D01*
X189233157Y-89822765D01*
X189282440Y-89575000D01*
X189282440Y-89182691D01*
X190970132Y-87495000D01*
X193839869Y-87495000D01*
X193905001Y-87560132D01*
X193905001Y-87615353D01*
X193715000Y-87577560D01*
X192365000Y-87577560D01*
X192117235Y-87626843D01*
X191907191Y-87767191D01*
X191766843Y-87977235D01*
X191717560Y-88225000D01*
X191717560Y-89575000D01*
X191766843Y-89822765D01*
X191907191Y-90032809D01*
X192001714Y-90095968D01*
X191806007Y-90388864D01*
X191704336Y-90900000D01*
X191806007Y-91411136D01*
X192042451Y-91765000D01*
X182015000Y-91765000D01*
X182015000Y-90770587D01*
X182127765Y-90748157D01*
X182337809Y-90607809D01*
X182478157Y-90397765D01*
X182527440Y-90150000D01*
X182527440Y-87650000D01*
X182478157Y-87402235D01*
X182337809Y-87192191D01*
X182127765Y-87051843D01*
X181880000Y-87002560D01*
X179880000Y-87002560D01*
X179632235Y-87051843D01*
X179422191Y-87192191D01*
X179281843Y-87402235D01*
X179232560Y-87650000D01*
X179232560Y-90150000D01*
X179281843Y-90397765D01*
X179422191Y-90607809D01*
X179632235Y-90748157D01*
X179745000Y-90770587D01*
X179745001Y-92707337D01*
X179690765Y-92980000D01*
X179778854Y-93422854D01*
X179807737Y-93466080D01*
X179849843Y-93677765D01*
X179947081Y-93823291D01*
X179864000Y-93806765D01*
X179421146Y-93894854D01*
X179414768Y-93899116D01*
X179250235Y-93931843D01*
X179040191Y-94072191D01*
X178899843Y-94282235D01*
X178876680Y-94398686D01*
X178794854Y-94521146D01*
X178706765Y-94964000D01*
X178729001Y-95075788D01*
X178729000Y-99729413D01*
X178616235Y-99751843D01*
X178406191Y-99892191D01*
X178265843Y-100102235D01*
X178216560Y-100350000D01*
X178216560Y-102850000D01*
X178265843Y-103097765D01*
X178406191Y-103307809D01*
X178616235Y-103448157D01*
X178864000Y-103497440D01*
X180864000Y-103497440D01*
X181111765Y-103448157D01*
X181321809Y-103307809D01*
X181462157Y-103097765D01*
X181511440Y-102850000D01*
X181511440Y-100350000D01*
X181462157Y-100102235D01*
X181321809Y-99892191D01*
X181111765Y-99751843D01*
X180999000Y-99729413D01*
X180999000Y-97313750D01*
X186650000Y-97313750D01*
X186650000Y-97829310D01*
X186746673Y-98062699D01*
X186925302Y-98241327D01*
X187158691Y-98338000D01*
X187674250Y-98338000D01*
X187833000Y-98179250D01*
X187833000Y-97155000D01*
X188087000Y-97155000D01*
X188087000Y-98179250D01*
X188245750Y-98338000D01*
X188761309Y-98338000D01*
X188994698Y-98241327D01*
X189173327Y-98062699D01*
X189270000Y-97829310D01*
X189270000Y-97313750D01*
X189111250Y-97155000D01*
X188087000Y-97155000D01*
X187833000Y-97155000D01*
X186808750Y-97155000D01*
X186650000Y-97313750D01*
X180999000Y-97313750D01*
X180999000Y-96226690D01*
X186650000Y-96226690D01*
X186650000Y-96742250D01*
X186808750Y-96901000D01*
X187833000Y-96901000D01*
X187833000Y-95876750D01*
X188087000Y-95876750D01*
X188087000Y-96901000D01*
X189111250Y-96901000D01*
X189270000Y-96742250D01*
X189270000Y-96226690D01*
X189173327Y-95993301D01*
X188994698Y-95814673D01*
X188761309Y-95718000D01*
X188245750Y-95718000D01*
X188087000Y-95876750D01*
X187833000Y-95876750D01*
X187674250Y-95718000D01*
X187158691Y-95718000D01*
X186925302Y-95814673D01*
X186746673Y-95993301D01*
X186650000Y-96226690D01*
X180999000Y-96226690D01*
X180999000Y-95929026D01*
X181038301Y-95968327D01*
X181271690Y-96065000D01*
X181512250Y-96065000D01*
X181671000Y-95906250D01*
X181671000Y-95107000D01*
X181925000Y-95107000D01*
X181925000Y-95906250D01*
X182083750Y-96065000D01*
X182324310Y-96065000D01*
X182557699Y-95968327D01*
X182736327Y-95789698D01*
X182833000Y-95556309D01*
X182833000Y-95265750D01*
X182674250Y-95107000D01*
X181925000Y-95107000D01*
X181671000Y-95107000D01*
X181651000Y-95107000D01*
X181651000Y-94853000D01*
X181671000Y-94853000D01*
X181671000Y-94833000D01*
X181925000Y-94833000D01*
X181925000Y-94853000D01*
X182674250Y-94853000D01*
X182833000Y-94694250D01*
X182833000Y-94403691D01*
X182736327Y-94170302D01*
X182601026Y-94035000D01*
X192042451Y-94035000D01*
X191806007Y-94388864D01*
X191704336Y-94900000D01*
X191806007Y-95411136D01*
X192095543Y-95844457D01*
X192198358Y-95913156D01*
X191910522Y-96236367D01*
X191772090Y-96570600D01*
X191895776Y-96773000D01*
X192913000Y-96773000D01*
X192913000Y-96753000D01*
X193167000Y-96753000D01*
X193167000Y-96773000D01*
X193187000Y-96773000D01*
X193187000Y-97027000D01*
X193167000Y-97027000D01*
X193167000Y-97047000D01*
X192913000Y-97047000D01*
X192913000Y-97027000D01*
X191895776Y-97027000D01*
X191772090Y-97229400D01*
X191910522Y-97563633D01*
X192198358Y-97886844D01*
X192095543Y-97955543D01*
X191806007Y-98388864D01*
X191771245Y-98563623D01*
X189869869Y-100465000D01*
X189089530Y-100465000D01*
X188882765Y-100326843D01*
X188635000Y-100277560D01*
X187285000Y-100277560D01*
X187037235Y-100326843D01*
X186830470Y-100465000D01*
X185511440Y-100465000D01*
X185511440Y-100350000D01*
X185462157Y-100102235D01*
X185321809Y-99892191D01*
X185111765Y-99751843D01*
X184864000Y-99702560D01*
X182864000Y-99702560D01*
X182616235Y-99751843D01*
X182406191Y-99892191D01*
X182265843Y-100102235D01*
X182216560Y-100350000D01*
X182216560Y-102850000D01*
X182265843Y-103097765D01*
X182406191Y-103307809D01*
X182616235Y-103448157D01*
X182864000Y-103497440D01*
X184864000Y-103497440D01*
X185111765Y-103448157D01*
X185321809Y-103307809D01*
X185462157Y-103097765D01*
X185511440Y-102850000D01*
X185511440Y-102735000D01*
X186830470Y-102735000D01*
X187037235Y-102873157D01*
X187285000Y-102922440D01*
X188635000Y-102922440D01*
X188882765Y-102873157D01*
X189089530Y-102735000D01*
X190228217Y-102735000D01*
X190340000Y-102757235D01*
X190451783Y-102735000D01*
X190782855Y-102669146D01*
X191158289Y-102418289D01*
X191221613Y-102323518D01*
X191937381Y-101607751D01*
X192095543Y-101844457D01*
X192178669Y-101900000D01*
X192095543Y-101955543D01*
X191806007Y-102388864D01*
X191704336Y-102900000D01*
X191806007Y-103411136D01*
X192095543Y-103844457D01*
X192178669Y-103900000D01*
X192095543Y-103955543D01*
X191806007Y-104388864D01*
X191704336Y-104900000D01*
X191806007Y-105411136D01*
X192095543Y-105844457D01*
X192178669Y-105900000D01*
X192095543Y-105955543D01*
X191806007Y-106388864D01*
X191704336Y-106900000D01*
X191761623Y-107188000D01*
X177927000Y-107188000D01*
X177927000Y-86487000D01*
X188767868Y-86487000D01*
X187677309Y-87577560D01*
X187677309Y-87577560D01*
G37*
X187677309Y-87577560D02*
X187285000Y-87577560D01*
X187037235Y-87626843D01*
X186830470Y-87765000D01*
X186527440Y-87765000D01*
X186527440Y-87650000D01*
X186478157Y-87402235D01*
X186337809Y-87192191D01*
X186127765Y-87051843D01*
X185880000Y-87002560D01*
X183880000Y-87002560D01*
X183632235Y-87051843D01*
X183422191Y-87192191D01*
X183281843Y-87402235D01*
X183232560Y-87650000D01*
X183232560Y-90150000D01*
X183281843Y-90397765D01*
X183422191Y-90607809D01*
X183632235Y-90748157D01*
X183880000Y-90797440D01*
X185880000Y-90797440D01*
X186127765Y-90748157D01*
X186337809Y-90607809D01*
X186478157Y-90397765D01*
X186527440Y-90150000D01*
X186527440Y-90035000D01*
X186830470Y-90035000D01*
X187037235Y-90173157D01*
X187285000Y-90222440D01*
X188635000Y-90222440D01*
X188882765Y-90173157D01*
X189092809Y-90032809D01*
X189233157Y-89822765D01*
X189282440Y-89575000D01*
X189282440Y-89182691D01*
X190970132Y-87495000D01*
X193839869Y-87495000D01*
X193905001Y-87560132D01*
X193905001Y-87615353D01*
X193715000Y-87577560D01*
X192365000Y-87577560D01*
X192117235Y-87626843D01*
X191907191Y-87767191D01*
X191766843Y-87977235D01*
X191717560Y-88225000D01*
X191717560Y-89575000D01*
X191766843Y-89822765D01*
X191907191Y-90032809D01*
X192001714Y-90095968D01*
X191806007Y-90388864D01*
X191704336Y-90900000D01*
X191806007Y-91411136D01*
X192042451Y-91765000D01*
X182015000Y-91765000D01*
X182015000Y-90770587D01*
X182127765Y-90748157D01*
X182337809Y-90607809D01*
X182478157Y-90397765D01*
X182527440Y-90150000D01*
X182527440Y-87650000D01*
X182478157Y-87402235D01*
X182337809Y-87192191D01*
X182127765Y-87051843D01*
X181880000Y-87002560D01*
X179880000Y-87002560D01*
X179632235Y-87051843D01*
X179422191Y-87192191D01*
X179281843Y-87402235D01*
X179232560Y-87650000D01*
X179232560Y-90150000D01*
X179281843Y-90397765D01*
X179422191Y-90607809D01*
X179632235Y-90748157D01*
X179745000Y-90770587D01*
X179745001Y-92707337D01*
X179690765Y-92980000D01*
X179778854Y-93422854D01*
X179807737Y-93466080D01*
X179849843Y-93677765D01*
X179947081Y-93823291D01*
X179864000Y-93806765D01*
X179421146Y-93894854D01*
X179414768Y-93899116D01*
X179250235Y-93931843D01*
X179040191Y-94072191D01*
X178899843Y-94282235D01*
X178876680Y-94398686D01*
X178794854Y-94521146D01*
X178706765Y-94964000D01*
X178729001Y-95075788D01*
X178729000Y-99729413D01*
X178616235Y-99751843D01*
X178406191Y-99892191D01*
X178265843Y-100102235D01*
X178216560Y-100350000D01*
X178216560Y-102850000D01*
X178265843Y-103097765D01*
X178406191Y-103307809D01*
X178616235Y-103448157D01*
X178864000Y-103497440D01*
X180864000Y-103497440D01*
X181111765Y-103448157D01*
X181321809Y-103307809D01*
X181462157Y-103097765D01*
X181511440Y-102850000D01*
X181511440Y-100350000D01*
X181462157Y-100102235D01*
X181321809Y-99892191D01*
X181111765Y-99751843D01*
X180999000Y-99729413D01*
X180999000Y-97313750D01*
X186650000Y-97313750D01*
X186650000Y-97829310D01*
X186746673Y-98062699D01*
X186925302Y-98241327D01*
X187158691Y-98338000D01*
X187674250Y-98338000D01*
X187833000Y-98179250D01*
X187833000Y-97155000D01*
X188087000Y-97155000D01*
X188087000Y-98179250D01*
X188245750Y-98338000D01*
X188761309Y-98338000D01*
X188994698Y-98241327D01*
X189173327Y-98062699D01*
X189270000Y-97829310D01*
X189270000Y-97313750D01*
X189111250Y-97155000D01*
X188087000Y-97155000D01*
X187833000Y-97155000D01*
X186808750Y-97155000D01*
X186650000Y-97313750D01*
X180999000Y-97313750D01*
X180999000Y-96226690D01*
X186650000Y-96226690D01*
X186650000Y-96742250D01*
X186808750Y-96901000D01*
X187833000Y-96901000D01*
X187833000Y-95876750D01*
X188087000Y-95876750D01*
X188087000Y-96901000D01*
X189111250Y-96901000D01*
X189270000Y-96742250D01*
X189270000Y-96226690D01*
X189173327Y-95993301D01*
X188994698Y-95814673D01*
X188761309Y-95718000D01*
X188245750Y-95718000D01*
X188087000Y-95876750D01*
X187833000Y-95876750D01*
X187674250Y-95718000D01*
X187158691Y-95718000D01*
X186925302Y-95814673D01*
X186746673Y-95993301D01*
X186650000Y-96226690D01*
X180999000Y-96226690D01*
X180999000Y-95929026D01*
X181038301Y-95968327D01*
X181271690Y-96065000D01*
X181512250Y-96065000D01*
X181671000Y-95906250D01*
X181671000Y-95107000D01*
X181925000Y-95107000D01*
X181925000Y-95906250D01*
X182083750Y-96065000D01*
X182324310Y-96065000D01*
X182557699Y-95968327D01*
X182736327Y-95789698D01*
X182833000Y-95556309D01*
X182833000Y-95265750D01*
X182674250Y-95107000D01*
X181925000Y-95107000D01*
X181671000Y-95107000D01*
X181651000Y-95107000D01*
X181651000Y-94853000D01*
X181671000Y-94853000D01*
X181671000Y-94833000D01*
X181925000Y-94833000D01*
X181925000Y-94853000D01*
X182674250Y-94853000D01*
X182833000Y-94694250D01*
X182833000Y-94403691D01*
X182736327Y-94170302D01*
X182601026Y-94035000D01*
X192042451Y-94035000D01*
X191806007Y-94388864D01*
X191704336Y-94900000D01*
X191806007Y-95411136D01*
X192095543Y-95844457D01*
X192198358Y-95913156D01*
X191910522Y-96236367D01*
X191772090Y-96570600D01*
X191895776Y-96773000D01*
X192913000Y-96773000D01*
X192913000Y-96753000D01*
X193167000Y-96753000D01*
X193167000Y-96773000D01*
X193187000Y-96773000D01*
X193187000Y-97027000D01*
X193167000Y-97027000D01*
X193167000Y-97047000D01*
X192913000Y-97047000D01*
X192913000Y-97027000D01*
X191895776Y-97027000D01*
X191772090Y-97229400D01*
X191910522Y-97563633D01*
X192198358Y-97886844D01*
X192095543Y-97955543D01*
X191806007Y-98388864D01*
X191771245Y-98563623D01*
X189869869Y-100465000D01*
X189089530Y-100465000D01*
X188882765Y-100326843D01*
X188635000Y-100277560D01*
X187285000Y-100277560D01*
X187037235Y-100326843D01*
X186830470Y-100465000D01*
X185511440Y-100465000D01*
X185511440Y-100350000D01*
X185462157Y-100102235D01*
X185321809Y-99892191D01*
X185111765Y-99751843D01*
X184864000Y-99702560D01*
X182864000Y-99702560D01*
X182616235Y-99751843D01*
X182406191Y-99892191D01*
X182265843Y-100102235D01*
X182216560Y-100350000D01*
X182216560Y-102850000D01*
X182265843Y-103097765D01*
X182406191Y-103307809D01*
X182616235Y-103448157D01*
X182864000Y-103497440D01*
X184864000Y-103497440D01*
X185111765Y-103448157D01*
X185321809Y-103307809D01*
X185462157Y-103097765D01*
X185511440Y-102850000D01*
X185511440Y-102735000D01*
X186830470Y-102735000D01*
X187037235Y-102873157D01*
X187285000Y-102922440D01*
X188635000Y-102922440D01*
X188882765Y-102873157D01*
X189089530Y-102735000D01*
X190228217Y-102735000D01*
X190340000Y-102757235D01*
X190451783Y-102735000D01*
X190782855Y-102669146D01*
X191158289Y-102418289D01*
X191221613Y-102323518D01*
X191937381Y-101607751D01*
X192095543Y-101844457D01*
X192178669Y-101900000D01*
X192095543Y-101955543D01*
X191806007Y-102388864D01*
X191704336Y-102900000D01*
X191806007Y-103411136D01*
X192095543Y-103844457D01*
X192178669Y-103900000D01*
X192095543Y-103955543D01*
X191806007Y-104388864D01*
X191704336Y-104900000D01*
X191806007Y-105411136D01*
X192095543Y-105844457D01*
X192178669Y-105900000D01*
X192095543Y-105955543D01*
X191806007Y-106388864D01*
X191704336Y-106900000D01*
X191761623Y-107188000D01*
X177927000Y-107188000D01*
X177927000Y-86487000D01*
X188767868Y-86487000D01*
X187677309Y-87577560D01*
G04 #@! TD*
M02*
