G04 #@! TF.GenerationSoftware,KiCad,Pcbnew,(5.0.0)*
G04 #@! TF.CreationDate,2018-10-05T12:29:06-03:00*
G04 #@! TF.ProjectId,Kurupira 2,4B7572757069726120322E6B69636164,rev?*
G04 #@! TF.SameCoordinates,Original*
G04 #@! TF.FileFunction,Legend,Bot*
G04 #@! TF.FilePolarity,Positive*
%FSLAX46Y46*%
G04 Gerber Fmt 4.6, Leading zero omitted, Abs format (unit mm)*
G04 Created by KiCad (PCBNEW (5.0.0)) date 10/05/18 12:29:06*
%MOMM*%
%LPD*%
G01*
G04 APERTURE LIST*
%ADD10C,0.300000*%
G04 APERTURE END LIST*
D10*
X147455714Y-120166428D02*
X147527142Y-120095000D01*
X147670000Y-120023571D01*
X148027142Y-120023571D01*
X148170000Y-120095000D01*
X148241428Y-120166428D01*
X148312857Y-120309285D01*
X148312857Y-120452142D01*
X148241428Y-120666428D01*
X147384285Y-121523571D01*
X148312857Y-121523571D01*
X148884285Y-120166428D02*
X148955714Y-120095000D01*
X149098571Y-120023571D01*
X149455714Y-120023571D01*
X149598571Y-120095000D01*
X149670000Y-120166428D01*
X149741428Y-120309285D01*
X149741428Y-120452142D01*
X149670000Y-120666428D01*
X148812857Y-121523571D01*
X149741428Y-121523571D01*
X150384285Y-121380714D02*
X150455714Y-121452142D01*
X150384285Y-121523571D01*
X150312857Y-121452142D01*
X150384285Y-121380714D01*
X150384285Y-121523571D01*
X151312857Y-120666428D02*
X151170000Y-120595000D01*
X151098571Y-120523571D01*
X151027142Y-120380714D01*
X151027142Y-120309285D01*
X151098571Y-120166428D01*
X151170000Y-120095000D01*
X151312857Y-120023571D01*
X151598571Y-120023571D01*
X151741428Y-120095000D01*
X151812857Y-120166428D01*
X151884285Y-120309285D01*
X151884285Y-120380714D01*
X151812857Y-120523571D01*
X151741428Y-120595000D01*
X151598571Y-120666428D01*
X151312857Y-120666428D01*
X151170000Y-120737857D01*
X151098571Y-120809285D01*
X151027142Y-120952142D01*
X151027142Y-121237857D01*
X151098571Y-121380714D01*
X151170000Y-121452142D01*
X151312857Y-121523571D01*
X151598571Y-121523571D01*
X151741428Y-121452142D01*
X151812857Y-121380714D01*
X151884285Y-121237857D01*
X151884285Y-120952142D01*
X151812857Y-120809285D01*
X151741428Y-120737857D01*
X151598571Y-120666428D01*
X153170000Y-120023571D02*
X152884285Y-120023571D01*
X152741428Y-120095000D01*
X152670000Y-120166428D01*
X152527142Y-120380714D01*
X152455714Y-120666428D01*
X152455714Y-121237857D01*
X152527142Y-121380714D01*
X152598571Y-121452142D01*
X152741428Y-121523571D01*
X153027142Y-121523571D01*
X153170000Y-121452142D01*
X153241428Y-121380714D01*
X153312857Y-121237857D01*
X153312857Y-120880714D01*
X153241428Y-120737857D01*
X153170000Y-120666428D01*
X153027142Y-120595000D01*
X152741428Y-120595000D01*
X152598571Y-120666428D01*
X152527142Y-120737857D01*
X152455714Y-120880714D01*
X154241428Y-120023571D02*
X154384285Y-120023571D01*
X154527142Y-120095000D01*
X154598571Y-120166428D01*
X154670000Y-120309285D01*
X154741428Y-120595000D01*
X154741428Y-120952142D01*
X154670000Y-121237857D01*
X154598571Y-121380714D01*
X154527142Y-121452142D01*
X154384285Y-121523571D01*
X154241428Y-121523571D01*
X154098571Y-121452142D01*
X154027142Y-121380714D01*
X153955714Y-121237857D01*
X153884285Y-120952142D01*
X153884285Y-120595000D01*
X153955714Y-120309285D01*
X154027142Y-120166428D01*
X154098571Y-120095000D01*
X154241428Y-120023571D01*
X156527142Y-121523571D02*
X156527142Y-120523571D01*
X156527142Y-120666428D02*
X156598571Y-120595000D01*
X156741428Y-120523571D01*
X156955714Y-120523571D01*
X157098571Y-120595000D01*
X157170000Y-120737857D01*
X157170000Y-121523571D01*
X157170000Y-120737857D02*
X157241428Y-120595000D01*
X157384285Y-120523571D01*
X157598571Y-120523571D01*
X157741428Y-120595000D01*
X157812857Y-120737857D01*
X157812857Y-121523571D01*
X158527142Y-121523571D02*
X158527142Y-120523571D01*
X158527142Y-120666428D02*
X158598571Y-120595000D01*
X158741428Y-120523571D01*
X158955714Y-120523571D01*
X159098571Y-120595000D01*
X159170000Y-120737857D01*
X159170000Y-121523571D01*
X159170000Y-120737857D02*
X159241428Y-120595000D01*
X159384285Y-120523571D01*
X159598571Y-120523571D01*
X159741428Y-120595000D01*
X159812857Y-120737857D01*
X159812857Y-121523571D01*
X165100000Y-118745000D02*
X142240000Y-118745000D01*
X165100000Y-111125000D02*
X165100000Y-119331421D01*
X142240000Y-111125000D02*
X142240000Y-119331421D01*
X142240000Y-118745000D02*
X143366504Y-118158579D01*
X142240000Y-118745000D02*
X143366504Y-119331421D01*
X165100000Y-118745000D02*
X163973496Y-118158579D01*
X165100000Y-118745000D02*
X163973496Y-119331421D01*
X132476428Y-97512857D02*
X132476428Y-96655714D01*
X132476428Y-97084285D02*
X133976428Y-97084285D01*
X133762142Y-96941428D01*
X133619285Y-96798571D01*
X133547857Y-96655714D01*
X133976428Y-98798571D02*
X133976428Y-98512857D01*
X133905000Y-98370000D01*
X133833571Y-98298571D01*
X133619285Y-98155714D01*
X133333571Y-98084285D01*
X132762142Y-98084285D01*
X132619285Y-98155714D01*
X132547857Y-98227142D01*
X132476428Y-98370000D01*
X132476428Y-98655714D01*
X132547857Y-98798571D01*
X132619285Y-98870000D01*
X132762142Y-98941428D01*
X133119285Y-98941428D01*
X133262142Y-98870000D01*
X133333571Y-98798571D01*
X133405000Y-98655714D01*
X133405000Y-98370000D01*
X133333571Y-98227142D01*
X133262142Y-98155714D01*
X133119285Y-98084285D01*
X132619285Y-99584285D02*
X132547857Y-99655714D01*
X132476428Y-99584285D01*
X132547857Y-99512857D01*
X132619285Y-99584285D01*
X132476428Y-99584285D01*
X133976428Y-101012857D02*
X133976428Y-100298571D01*
X133262142Y-100227142D01*
X133333571Y-100298571D01*
X133405000Y-100441428D01*
X133405000Y-100798571D01*
X133333571Y-100941428D01*
X133262142Y-101012857D01*
X133119285Y-101084285D01*
X132762142Y-101084285D01*
X132619285Y-101012857D01*
X132547857Y-100941428D01*
X132476428Y-100798571D01*
X132476428Y-100441428D01*
X132547857Y-100298571D01*
X132619285Y-100227142D01*
X132476428Y-102512857D02*
X132476428Y-101655714D01*
X132476428Y-102084285D02*
X133976428Y-102084285D01*
X133762142Y-101941428D01*
X133619285Y-101798571D01*
X133547857Y-101655714D01*
X133976428Y-103441428D02*
X133976428Y-103584285D01*
X133905000Y-103727142D01*
X133833571Y-103798571D01*
X133690714Y-103870000D01*
X133405000Y-103941428D01*
X133047857Y-103941428D01*
X132762142Y-103870000D01*
X132619285Y-103798571D01*
X132547857Y-103727142D01*
X132476428Y-103584285D01*
X132476428Y-103441428D01*
X132547857Y-103298571D01*
X132619285Y-103227142D01*
X132762142Y-103155714D01*
X133047857Y-103084285D01*
X133405000Y-103084285D01*
X133690714Y-103155714D01*
X133833571Y-103227142D01*
X133905000Y-103298571D01*
X133976428Y-103441428D01*
X132476428Y-105727142D02*
X133476428Y-105727142D01*
X133333571Y-105727142D02*
X133405000Y-105798571D01*
X133476428Y-105941428D01*
X133476428Y-106155714D01*
X133405000Y-106298571D01*
X133262142Y-106370000D01*
X132476428Y-106370000D01*
X133262142Y-106370000D02*
X133405000Y-106441428D01*
X133476428Y-106584285D01*
X133476428Y-106798571D01*
X133405000Y-106941428D01*
X133262142Y-107012857D01*
X132476428Y-107012857D01*
X132476428Y-107727142D02*
X133476428Y-107727142D01*
X133333571Y-107727142D02*
X133405000Y-107798571D01*
X133476428Y-107941428D01*
X133476428Y-108155714D01*
X133405000Y-108298571D01*
X133262142Y-108370000D01*
X132476428Y-108370000D01*
X133262142Y-108370000D02*
X133405000Y-108441428D01*
X133476428Y-108584285D01*
X133476428Y-108798571D01*
X133405000Y-108941428D01*
X133262142Y-109012857D01*
X132476428Y-109012857D01*
X135255000Y-94615000D02*
X135255000Y-111125000D01*
X142240000Y-94615000D02*
X134668579Y-94615000D01*
X142240000Y-111125000D02*
X134668579Y-111125000D01*
X135255000Y-111125000D02*
X134668579Y-109998496D01*
X135255000Y-111125000D02*
X135841421Y-109998496D01*
X135255000Y-94615000D02*
X134668579Y-95741504D01*
X135255000Y-94615000D02*
X135841421Y-95741504D01*
X182483571Y-96655714D02*
X182555000Y-96727142D01*
X182626428Y-96870000D01*
X182626428Y-97227142D01*
X182555000Y-97370000D01*
X182483571Y-97441428D01*
X182340714Y-97512857D01*
X182197857Y-97512857D01*
X181983571Y-97441428D01*
X181126428Y-96584285D01*
X181126428Y-97512857D01*
X182483571Y-98084285D02*
X182555000Y-98155714D01*
X182626428Y-98298571D01*
X182626428Y-98655714D01*
X182555000Y-98798571D01*
X182483571Y-98870000D01*
X182340714Y-98941428D01*
X182197857Y-98941428D01*
X181983571Y-98870000D01*
X181126428Y-98012857D01*
X181126428Y-98941428D01*
X181269285Y-99584285D02*
X181197857Y-99655714D01*
X181126428Y-99584285D01*
X181197857Y-99512857D01*
X181269285Y-99584285D01*
X181126428Y-99584285D01*
X181983571Y-100512857D02*
X182055000Y-100370000D01*
X182126428Y-100298571D01*
X182269285Y-100227142D01*
X182340714Y-100227142D01*
X182483571Y-100298571D01*
X182555000Y-100370000D01*
X182626428Y-100512857D01*
X182626428Y-100798571D01*
X182555000Y-100941428D01*
X182483571Y-101012857D01*
X182340714Y-101084285D01*
X182269285Y-101084285D01*
X182126428Y-101012857D01*
X182055000Y-100941428D01*
X181983571Y-100798571D01*
X181983571Y-100512857D01*
X181912142Y-100370000D01*
X181840714Y-100298571D01*
X181697857Y-100227142D01*
X181412142Y-100227142D01*
X181269285Y-100298571D01*
X181197857Y-100370000D01*
X181126428Y-100512857D01*
X181126428Y-100798571D01*
X181197857Y-100941428D01*
X181269285Y-101012857D01*
X181412142Y-101084285D01*
X181697857Y-101084285D01*
X181840714Y-101012857D01*
X181912142Y-100941428D01*
X181983571Y-100798571D01*
X182626428Y-102370000D02*
X182626428Y-102084285D01*
X182555000Y-101941428D01*
X182483571Y-101870000D01*
X182269285Y-101727142D01*
X181983571Y-101655714D01*
X181412142Y-101655714D01*
X181269285Y-101727142D01*
X181197857Y-101798571D01*
X181126428Y-101941428D01*
X181126428Y-102227142D01*
X181197857Y-102370000D01*
X181269285Y-102441428D01*
X181412142Y-102512857D01*
X181769285Y-102512857D01*
X181912142Y-102441428D01*
X181983571Y-102370000D01*
X182055000Y-102227142D01*
X182055000Y-101941428D01*
X181983571Y-101798571D01*
X181912142Y-101727142D01*
X181769285Y-101655714D01*
X182626428Y-103441428D02*
X182626428Y-103584285D01*
X182555000Y-103727142D01*
X182483571Y-103798571D01*
X182340714Y-103870000D01*
X182055000Y-103941428D01*
X181697857Y-103941428D01*
X181412142Y-103870000D01*
X181269285Y-103798571D01*
X181197857Y-103727142D01*
X181126428Y-103584285D01*
X181126428Y-103441428D01*
X181197857Y-103298571D01*
X181269285Y-103227142D01*
X181412142Y-103155714D01*
X181697857Y-103084285D01*
X182055000Y-103084285D01*
X182340714Y-103155714D01*
X182483571Y-103227142D01*
X182555000Y-103298571D01*
X182626428Y-103441428D01*
X181126428Y-105727142D02*
X182126428Y-105727142D01*
X181983571Y-105727142D02*
X182055000Y-105798571D01*
X182126428Y-105941428D01*
X182126428Y-106155714D01*
X182055000Y-106298571D01*
X181912142Y-106370000D01*
X181126428Y-106370000D01*
X181912142Y-106370000D02*
X182055000Y-106441428D01*
X182126428Y-106584285D01*
X182126428Y-106798571D01*
X182055000Y-106941428D01*
X181912142Y-107012857D01*
X181126428Y-107012857D01*
X181126428Y-107727142D02*
X182126428Y-107727142D01*
X181983571Y-107727142D02*
X182055000Y-107798571D01*
X182126428Y-107941428D01*
X182126428Y-108155714D01*
X182055000Y-108298571D01*
X181912142Y-108370000D01*
X181126428Y-108370000D01*
X181912142Y-108370000D02*
X182055000Y-108441428D01*
X182126428Y-108584285D01*
X182126428Y-108798571D01*
X182055000Y-108941428D01*
X181912142Y-109012857D01*
X181126428Y-109012857D01*
X179705000Y-91440000D02*
X179705000Y-114300000D01*
X168275000Y-91440000D02*
X180291421Y-91440000D01*
X168275000Y-114300000D02*
X180291421Y-114300000D01*
X179705000Y-114300000D02*
X179118579Y-113173496D01*
X179705000Y-114300000D02*
X180291421Y-113173496D01*
X179705000Y-91440000D02*
X179118579Y-92566504D01*
X179705000Y-91440000D02*
X180291421Y-92566504D01*
X173736428Y-107141071D02*
X173736428Y-108069642D01*
X173165000Y-107569642D01*
X173165000Y-107783928D01*
X173093571Y-107926785D01*
X173022142Y-107998214D01*
X172879285Y-108069642D01*
X172522142Y-108069642D01*
X172379285Y-107998214D01*
X172307857Y-107926785D01*
X172236428Y-107783928D01*
X172236428Y-107355357D01*
X172307857Y-107212500D01*
X172379285Y-107141071D01*
X172379285Y-108712500D02*
X172307857Y-108783928D01*
X172236428Y-108712500D01*
X172307857Y-108641071D01*
X172379285Y-108712500D01*
X172236428Y-108712500D01*
X172236428Y-110212500D02*
X172236428Y-109355357D01*
X172236428Y-109783928D02*
X173736428Y-109783928D01*
X173522142Y-109641071D01*
X173379285Y-109498214D01*
X173307857Y-109355357D01*
X173736428Y-110712500D02*
X173736428Y-111712500D01*
X172236428Y-111069642D01*
X173736428Y-112998214D02*
X173736428Y-112283928D01*
X173022142Y-112212500D01*
X173093571Y-112283928D01*
X173165000Y-112426785D01*
X173165000Y-112783928D01*
X173093571Y-112926785D01*
X173022142Y-112998214D01*
X172879285Y-113069642D01*
X172522142Y-113069642D01*
X172379285Y-112998214D01*
X172307857Y-112926785D01*
X172236428Y-112783928D01*
X172236428Y-112426785D01*
X172307857Y-112283928D01*
X172379285Y-112212500D01*
X172236428Y-114855357D02*
X173236428Y-114855357D01*
X173093571Y-114855357D02*
X173165000Y-114926785D01*
X173236428Y-115069642D01*
X173236428Y-115283928D01*
X173165000Y-115426785D01*
X173022142Y-115498214D01*
X172236428Y-115498214D01*
X173022142Y-115498214D02*
X173165000Y-115569642D01*
X173236428Y-115712500D01*
X173236428Y-115926785D01*
X173165000Y-116069642D01*
X173022142Y-116141071D01*
X172236428Y-116141071D01*
X172236428Y-116855357D02*
X173236428Y-116855357D01*
X173093571Y-116855357D02*
X173165000Y-116926785D01*
X173236428Y-117069642D01*
X173236428Y-117283928D01*
X173165000Y-117426785D01*
X173022142Y-117498214D01*
X172236428Y-117498214D01*
X173022142Y-117498214D02*
X173165000Y-117569642D01*
X173236428Y-117712500D01*
X173236428Y-117926785D01*
X173165000Y-118069642D01*
X173022142Y-118141071D01*
X172236428Y-118141071D01*
X170815000Y-111125000D02*
X170815000Y-114300000D01*
X165100000Y-111125000D02*
X171401421Y-111125000D01*
X165100000Y-114300000D02*
X171401421Y-114300000D01*
X170815000Y-114300000D02*
X170228579Y-113173496D01*
X170815000Y-114300000D02*
X171401421Y-113173496D01*
X170815000Y-111125000D02*
X170228579Y-112251504D01*
X170815000Y-111125000D02*
X171401421Y-112251504D01*
X161116071Y-120023571D02*
X162044642Y-120023571D01*
X161544642Y-120595000D01*
X161758928Y-120595000D01*
X161901785Y-120666428D01*
X161973214Y-120737857D01*
X162044642Y-120880714D01*
X162044642Y-121237857D01*
X161973214Y-121380714D01*
X161901785Y-121452142D01*
X161758928Y-121523571D01*
X161330357Y-121523571D01*
X161187500Y-121452142D01*
X161116071Y-121380714D01*
X162687500Y-121380714D02*
X162758928Y-121452142D01*
X162687500Y-121523571D01*
X162616071Y-121452142D01*
X162687500Y-121380714D01*
X162687500Y-121523571D01*
X164187500Y-121523571D02*
X163330357Y-121523571D01*
X163758928Y-121523571D02*
X163758928Y-120023571D01*
X163616071Y-120237857D01*
X163473214Y-120380714D01*
X163330357Y-120452142D01*
X164687500Y-120023571D02*
X165687500Y-120023571D01*
X165044642Y-121523571D01*
X166973214Y-120023571D02*
X166258928Y-120023571D01*
X166187500Y-120737857D01*
X166258928Y-120666428D01*
X166401785Y-120595000D01*
X166758928Y-120595000D01*
X166901785Y-120666428D01*
X166973214Y-120737857D01*
X167044642Y-120880714D01*
X167044642Y-121237857D01*
X166973214Y-121380714D01*
X166901785Y-121452142D01*
X166758928Y-121523571D01*
X166401785Y-121523571D01*
X166258928Y-121452142D01*
X166187500Y-121380714D01*
X168830357Y-121523571D02*
X168830357Y-120523571D01*
X168830357Y-120666428D02*
X168901785Y-120595000D01*
X169044642Y-120523571D01*
X169258928Y-120523571D01*
X169401785Y-120595000D01*
X169473214Y-120737857D01*
X169473214Y-121523571D01*
X169473214Y-120737857D02*
X169544642Y-120595000D01*
X169687500Y-120523571D01*
X169901785Y-120523571D01*
X170044642Y-120595000D01*
X170116071Y-120737857D01*
X170116071Y-121523571D01*
X170830357Y-121523571D02*
X170830357Y-120523571D01*
X170830357Y-120666428D02*
X170901785Y-120595000D01*
X171044642Y-120523571D01*
X171258928Y-120523571D01*
X171401785Y-120595000D01*
X171473214Y-120737857D01*
X171473214Y-121523571D01*
X171473214Y-120737857D02*
X171544642Y-120595000D01*
X171687500Y-120523571D01*
X171901785Y-120523571D01*
X172044642Y-120595000D01*
X172116071Y-120737857D01*
X172116071Y-121523571D01*
X165100000Y-118745000D02*
X168275000Y-118745000D01*
X165100000Y-114300000D02*
X165100000Y-119331421D01*
X168275000Y-114300000D02*
X168275000Y-119331421D01*
X168275000Y-118745000D02*
X167148496Y-119331421D01*
X168275000Y-118745000D02*
X167148496Y-118158579D01*
X165100000Y-118745000D02*
X166226504Y-119331421D01*
X165100000Y-118745000D02*
X166226504Y-118158579D01*
X147138214Y-82946428D02*
X147209642Y-82875000D01*
X147352500Y-82803571D01*
X147709642Y-82803571D01*
X147852500Y-82875000D01*
X147923928Y-82946428D01*
X147995357Y-83089285D01*
X147995357Y-83232142D01*
X147923928Y-83446428D01*
X147066785Y-84303571D01*
X147995357Y-84303571D01*
X148709642Y-84303571D02*
X148995357Y-84303571D01*
X149138214Y-84232142D01*
X149209642Y-84160714D01*
X149352500Y-83946428D01*
X149423928Y-83660714D01*
X149423928Y-83089285D01*
X149352500Y-82946428D01*
X149281071Y-82875000D01*
X149138214Y-82803571D01*
X148852500Y-82803571D01*
X148709642Y-82875000D01*
X148638214Y-82946428D01*
X148566785Y-83089285D01*
X148566785Y-83446428D01*
X148638214Y-83589285D01*
X148709642Y-83660714D01*
X148852500Y-83732142D01*
X149138214Y-83732142D01*
X149281071Y-83660714D01*
X149352500Y-83589285D01*
X149423928Y-83446428D01*
X150066785Y-84160714D02*
X150138214Y-84232142D01*
X150066785Y-84303571D01*
X149995357Y-84232142D01*
X150066785Y-84160714D01*
X150066785Y-84303571D01*
X150995357Y-83446428D02*
X150852500Y-83375000D01*
X150781071Y-83303571D01*
X150709642Y-83160714D01*
X150709642Y-83089285D01*
X150781071Y-82946428D01*
X150852500Y-82875000D01*
X150995357Y-82803571D01*
X151281071Y-82803571D01*
X151423928Y-82875000D01*
X151495357Y-82946428D01*
X151566785Y-83089285D01*
X151566785Y-83160714D01*
X151495357Y-83303571D01*
X151423928Y-83375000D01*
X151281071Y-83446428D01*
X150995357Y-83446428D01*
X150852500Y-83517857D01*
X150781071Y-83589285D01*
X150709642Y-83732142D01*
X150709642Y-84017857D01*
X150781071Y-84160714D01*
X150852500Y-84232142D01*
X150995357Y-84303571D01*
X151281071Y-84303571D01*
X151423928Y-84232142D01*
X151495357Y-84160714D01*
X151566785Y-84017857D01*
X151566785Y-83732142D01*
X151495357Y-83589285D01*
X151423928Y-83517857D01*
X151281071Y-83446428D01*
X152852500Y-83303571D02*
X152852500Y-84303571D01*
X152495357Y-82732142D02*
X152138214Y-83803571D01*
X153066785Y-83803571D01*
X154352500Y-82803571D02*
X153638214Y-82803571D01*
X153566785Y-83517857D01*
X153638214Y-83446428D01*
X153781071Y-83375000D01*
X154138214Y-83375000D01*
X154281071Y-83446428D01*
X154352500Y-83517857D01*
X154423928Y-83660714D01*
X154423928Y-84017857D01*
X154352500Y-84160714D01*
X154281071Y-84232142D01*
X154138214Y-84303571D01*
X153781071Y-84303571D01*
X153638214Y-84232142D01*
X153566785Y-84160714D01*
X156209642Y-84303571D02*
X156209642Y-83303571D01*
X156209642Y-83446428D02*
X156281071Y-83375000D01*
X156423928Y-83303571D01*
X156638214Y-83303571D01*
X156781071Y-83375000D01*
X156852500Y-83517857D01*
X156852500Y-84303571D01*
X156852500Y-83517857D02*
X156923928Y-83375000D01*
X157066785Y-83303571D01*
X157281071Y-83303571D01*
X157423928Y-83375000D01*
X157495357Y-83517857D01*
X157495357Y-84303571D01*
X158209642Y-84303571D02*
X158209642Y-83303571D01*
X158209642Y-83446428D02*
X158281071Y-83375000D01*
X158423928Y-83303571D01*
X158638214Y-83303571D01*
X158781071Y-83375000D01*
X158852500Y-83517857D01*
X158852500Y-84303571D01*
X158852500Y-83517857D02*
X158923928Y-83375000D01*
X159066785Y-83303571D01*
X159281071Y-83303571D01*
X159423928Y-83375000D01*
X159495357Y-83517857D01*
X159495357Y-84303571D01*
X168275000Y-85725000D02*
X138430000Y-85725000D01*
X168275000Y-91440000D02*
X168275000Y-85138579D01*
X138430000Y-91440000D02*
X138430000Y-85138579D01*
X138430000Y-85725000D02*
X139556504Y-85138579D01*
X138430000Y-85725000D02*
X139556504Y-86311421D01*
X168275000Y-85725000D02*
X167148496Y-85138579D01*
X168275000Y-85725000D02*
X167148496Y-86311421D01*
M02*
