G04 #@! TF.GenerationSoftware,KiCad,Pcbnew,(5.0.0)*
G04 #@! TF.CreationDate,2018-10-05T12:29:06-03:00*
G04 #@! TF.ProjectId,Kurupira 2,4B7572757069726120322E6B69636164,rev?*
G04 #@! TF.SameCoordinates,Original*
G04 #@! TF.FileFunction,Legend,Top*
G04 #@! TF.FilePolarity,Positive*
%FSLAX46Y46*%
G04 Gerber Fmt 4.6, Leading zero omitted, Abs format (unit mm)*
G04 Created by KiCad (PCBNEW (5.0.0)) date 10/05/18 12:29:06*
%MOMM*%
%LPD*%
G01*
G04 APERTURE LIST*
%ADD10C,0.120000*%
%ADD11C,0.150000*%
G04 APERTURE END LIST*
D10*
G04 #@! TO.C,J1*
X148340001Y-103270001D02*
X148340001Y-105900001D01*
X148340001Y-107270001D02*
X148340001Y-107645001D01*
X150460001Y-99525001D02*
X150460001Y-99900001D01*
X150460001Y-99900001D02*
X151690001Y-99900001D01*
X148340001Y-99525001D02*
X148340001Y-101900001D01*
X150460001Y-105270001D02*
X150460001Y-107645001D01*
X150460001Y-101270001D02*
X150460001Y-103900001D01*
X148340001Y-107645001D02*
X150460001Y-107645001D01*
X148340001Y-99525001D02*
X150460001Y-99525001D01*
G04 #@! TO.C,Q1*
X160965000Y-105285000D02*
X160965000Y-106745000D01*
X157805000Y-105285000D02*
X157805000Y-107445000D01*
X157805000Y-105285000D02*
X158735000Y-105285000D01*
X160965000Y-105285000D02*
X160035000Y-105285000D01*
G04 #@! TO.C,R1*
X157210000Y-101175000D02*
X155210000Y-101175000D01*
X155210000Y-98215000D02*
X157210000Y-98215000D01*
G04 #@! TO.C,R2*
X156420000Y-103775000D02*
X156420000Y-105775000D01*
X153460000Y-105775000D02*
X153460000Y-103775000D01*
G04 #@! TO.C,J1*
D11*
X149066667Y-97977381D02*
X149066667Y-98691667D01*
X149019048Y-98834524D01*
X148923810Y-98929762D01*
X148780953Y-98977381D01*
X148685715Y-98977381D01*
X150066667Y-98977381D02*
X149495239Y-98977381D01*
X149780953Y-98977381D02*
X149780953Y-97977381D01*
X149685715Y-98120239D01*
X149590477Y-98215477D01*
X149495239Y-98263096D01*
G04 #@! TO.C,Q1*
X157432619Y-106140238D02*
X157385000Y-106235476D01*
X157289761Y-106330714D01*
X157146904Y-106473571D01*
X157099285Y-106568809D01*
X157099285Y-106664047D01*
X157337380Y-106616428D02*
X157289761Y-106711666D01*
X157194523Y-106806904D01*
X157004047Y-106854523D01*
X156670714Y-106854523D01*
X156480238Y-106806904D01*
X156385000Y-106711666D01*
X156337380Y-106616428D01*
X156337380Y-106425952D01*
X156385000Y-106330714D01*
X156480238Y-106235476D01*
X156670714Y-106187857D01*
X157004047Y-106187857D01*
X157194523Y-106235476D01*
X157289761Y-106330714D01*
X157337380Y-106425952D01*
X157337380Y-106616428D01*
X157337380Y-105235476D02*
X157337380Y-105806904D01*
X157337380Y-105521190D02*
X156337380Y-105521190D01*
X156480238Y-105616428D01*
X156575476Y-105711666D01*
X156623095Y-105806904D01*
G04 #@! TO.C,R1*
X156043333Y-102447380D02*
X155710000Y-101971190D01*
X155471904Y-102447380D02*
X155471904Y-101447380D01*
X155852857Y-101447380D01*
X155948095Y-101495000D01*
X155995714Y-101542619D01*
X156043333Y-101637857D01*
X156043333Y-101780714D01*
X155995714Y-101875952D01*
X155948095Y-101923571D01*
X155852857Y-101971190D01*
X155471904Y-101971190D01*
X156995714Y-102447380D02*
X156424285Y-102447380D01*
X156710000Y-102447380D02*
X156710000Y-101447380D01*
X156614761Y-101590238D01*
X156519523Y-101685476D01*
X156424285Y-101733095D01*
G04 #@! TO.C,R2*
X153092380Y-104941666D02*
X152616190Y-105275000D01*
X153092380Y-105513095D02*
X152092380Y-105513095D01*
X152092380Y-105132142D01*
X152140000Y-105036904D01*
X152187619Y-104989285D01*
X152282857Y-104941666D01*
X152425714Y-104941666D01*
X152520952Y-104989285D01*
X152568571Y-105036904D01*
X152616190Y-105132142D01*
X152616190Y-105513095D01*
X152187619Y-104560714D02*
X152140000Y-104513095D01*
X152092380Y-104417857D01*
X152092380Y-104179761D01*
X152140000Y-104084523D01*
X152187619Y-104036904D01*
X152282857Y-103989285D01*
X152378095Y-103989285D01*
X152520952Y-104036904D01*
X153092380Y-104608333D01*
X153092380Y-103989285D01*
G04 #@! TD*
M02*
